# xmcd
#
# Track frame offsets:
#  150
#  12848
#  28845
#  45944
#  67135
#  76366
#  88049
#  102976
#  114366
#  135661
#  154687
#  171067
#
# Disc length: 2437 seconds
#
# Revision: 1
# Processed by: cddbd v1.5.1PL2 Copyright (c) Steve Scherf et al.
# Submitted via: Collectorz.com_Music_Collector 6.11
#
DISCID=9009830c
DTITLE=Myhrens Dam - 60 Days Of Passion
DYEAR=2006
DGENRE=Blues
TTITLE0=Passion Train
TTITLE1=So Blue
TTITLE2=Rollecoaster
TTITLE3=Frog Leg Man
TTITLE4=Lover Not A Fighter
TTITLE5=Jack She's On The Ball
TTITLE6=Sinner's Lunch
TTITLE7=Got Love If You Want It
TTITLE8=60 Days
TTITLE9=Young Fashioned Ways
TTITLE10=Miss You Like The Devil
TTITLE11=Gone To Main Street
EXTD=
EXTT0=
EXTT1=
EXTT2=
EXTT3=
EXTT4=
EXTT5=
EXTT6=
EXTT7=
EXTT8=
EXTT9=
EXTT10=
EXTT11=
PLAYORDER=
